<svg width="512" height="512" viewBox="0 0 512 512" fill="none" xmlns="http://www.w3.org/2000/svg">
  <rect width="512" height="512" rx="120" fill="url(#paint0_linear)"/>
  <rect x="120" y="120" width="80" height="80" rx="16" fill="#fff"/>
  <rect x="312" y="120" width="80" height="80" rx="16" fill="#fff"/>
  <rect x="120" y="312" width="80" height="80" rx="16" fill="#fff"/>
  <rect x="312" y="312" width="80" height="80" rx="16" fill="#fff"/>
  <rect x="200" y="200" width="112" height="112" rx="16" fill="#fff"/>
  <rect x="240" y="240" width="32" height="32" rx="8" fill="#667eea"/>
  <rect x="260" y="260" width="12" height="12" rx="3" fill="#fff"/>
  <rect x="180" y="180" width="16" height="16" rx="4" fill="#667eea"/>
  <rect x="316" y="180" width="16" height="16" rx="4" fill="#667eea"/>
  <rect x="180" y="316" width="16" height="16" rx="4" fill="#667eea"/>
  <rect x="316" y="316" width="16" height="16" rx="4" fill="#667eea"/>
  <rect x="220" y="350" width="72" height="12" rx="6" fill="#48bb78" opacity="0.7"/>
  <defs>
    <linearGradient id="paint0_linear" x1="0" y1="0" x2="512" y2="512" gradientUnits="userSpaceOnUse">
      <stop stop-color="#667eea"/>
      <stop offset="1" stop-color="#764ba2"/>
    </linearGradient>
  </defs>
</svg> 